<svg width="75.593750" height="75.593750" viewBox="0 0 75.5938 75.5938" fill="none" xmlns="http://www.w3.org/2000/svg" xmlns:xlink="http://www.w3.org/1999/xlink">
	<desc>
			Created with Pixso.
	</desc>
	<defs/>
	<g opacity="0.060000">
		<path id="Vector" d="M54.68 0L20.9 0C9.36 0 0 9.36 0 20.9L0 54.68C0 66.23 9.36 75.59 20.9 75.59L54.68 75.59C66.23 75.59 75.59 66.23 75.59 54.68L75.59 20.9C75.59 9.36 66.23 0 54.68 0Z" fill="#0089FF" fill-opacity="1.000000" fill-rule="nonzero"/>
	</g>
	<path id="Vector" d="M37.79 63.53C52.01 63.53 63.53 52.01 63.53 37.79C63.53 23.58 52.01 12.05 37.79 12.05C23.58 12.05 12.05 23.58 12.05 37.79C12.05 52.01 23.58 63.53 37.79 63.53Z" fill="#1B76FF" fill-opacity="1.000000" fill-rule="nonzero"/>
	<path id="Vector" d="M29.03 32.7L29.03 50.86L24.38 50.86C23.68 50.86 23.12 50.32 23.12 49.65L23.12 33.9C23.12 33.24 23.68 32.7 24.38 32.7L29.03 32.7Z" stroke="#FFFFFF" stroke-opacity="1.000000" stroke-width="1.608378" stroke-linejoin="round"/>
	<path id="Vector" d="M46.56 50.86L32.49 50.86C30.58 50.86 29.03 49.4 29.03 47.6L29.03 32.72C33.49 32.28 35.72 30.73 35.72 26.54L35.72 24.53C35.72 22.42 37.52 20.7 39.74 20.7C40.59 20.7 41.41 20.96 42.1 21.43C43.04 22.08 43.65 23.32 43.65 25.1L43.65 30.91C43.65 31.4 44.48 31.81 45.32 31.81L49.81 31.81C51.7 31.81 53.23 33.23 53.27 35C53.3 36.18 52.56 39.83 51.06 47.46C50.76 49.72 49.25 50.86 46.56 50.86Z" stroke="#FFFFFF" stroke-opacity="1.000000" stroke-width="1.608378" stroke-linejoin="round"/>
</svg>
