<svg width="76.000000" height="76.000000" viewBox="0 0 76 76" fill="none" xmlns="http://www.w3.org/2000/svg" xmlns:xlink="http://www.w3.org/1999/xlink">
	<desc>
			Created with Pixso.
	</desc>
	<defs/>
	<g opacity="0.060000">
		<path id="Vector" d="M54.97 0L21.02 0C9.41 0 0 9.41 0 21.02L0 54.97C0 66.58 9.41 76 21.02 76L54.97 76C66.58 76 76 66.58 76 54.97L76 21.02C76 9.41 66.58 0 54.97 0Z" fill="#F6CA4F" fill-opacity="1.000000" fill-rule="nonzero"/>
	</g>
	<path id="Vector" d="M38 63.87C52.29 63.87 63.87 52.29 63.87 38C63.87 23.7 52.29 12.12 38 12.12C23.7 12.12 12.12 23.7 12.12 38C12.12 52.29 23.7 63.87 38 63.87Z" fill="#FF6D35" fill-opacity="1.000000" fill-rule="nonzero"/>
	<path id="Vector" d="M28.44 49.67C26.11 49.67 24.2 47.76 24.2 45.42L24.2 30.57C24.2 28.23 26.11 26.32 28.44 26.32L47.55 26.32C49.88 26.32 51.79 28.23 51.79 30.57L51.79 45.42C51.79 47.76 49.88 49.67 47.55 49.67L28.44 49.67Z" stroke="#FFFFFF" stroke-opacity="1.000000" stroke-width="2.000000" stroke-linejoin="round"/>
	<path id="Vector" d="M24.2 31.63L38 40.12L51.79 31.63" stroke="#FFFFFF" stroke-opacity="1.000000" stroke-width="2.000000" stroke-linejoin="round" stroke-linecap="round"/>
</svg>
