<svg width="75.593750" height="75.593750" viewBox="0 0 75.5938 75.5938" fill="none" xmlns="http://www.w3.org/2000/svg" xmlns:xlink="http://www.w3.org/1999/xlink">
	<desc>
			Created with Pixso.
	</desc>
	<defs/>
	<g opacity="0.060000">
		<path id="Vector" d="M54.68 0L20.9 0C9.36 0 0 9.36 0 20.9L0 54.68C0 66.23 9.36 75.59 20.9 75.59L54.68 75.59C66.23 75.59 75.59 66.23 75.59 54.68L75.59 20.9C75.59 9.36 66.23 0 54.68 0Z" fill="#FF6F35" fill-opacity="1.000000" fill-rule="nonzero"/>
	</g>
	<path id="Vector" d="M37.79 63.53C52.01 63.53 63.53 52.01 63.53 37.79C63.53 23.58 52.01 12.05 37.79 12.05C23.58 12.05 12.05 23.58 12.05 37.79C12.05 52.01 23.58 63.53 37.79 63.53Z" fill="#FFCD1D" fill-opacity="1.000000" fill-rule="nonzero"/>
	<path id="Vector" d="M37.79 21.57L37.79 54.01" stroke="#FFFFFF" stroke-opacity="1.000000" stroke-width="2.412567" stroke-linejoin="round" stroke-linecap="round"/>
	<path id="Vector" d="M45.16 27.47L34.11 27.47C32.74 27.47 31.42 28.02 30.46 28.98C29.49 29.95 28.95 31.26 28.95 32.63C28.95 34 29.49 35.31 30.46 36.28C31.42 37.25 32.74 37.79 34.11 37.79L41.48 37.79C42.85 37.79 44.16 38.34 45.13 39.3C46.09 40.27 46.64 41.58 46.64 42.95C46.64 44.32 46.09 45.63 45.13 46.6C44.16 47.57 42.85 48.11 41.48 48.11L28.95 48.11" stroke="#FFFFFF" stroke-opacity="1.000000" stroke-width="2.412567" stroke-linejoin="round" stroke-linecap="round"/>
</svg>
