<svg width="75.593750" height="75.593750" viewBox="0 0 75.5938 75.5938" fill="none" xmlns="http://www.w3.org/2000/svg" xmlns:xlink="http://www.w3.org/1999/xlink">
	<desc>
			Created with Pixso.
	</desc>
	<defs/>
	<g opacity="0.060000">
		<path id="Vector" d="M54.68 0L20.9 0C9.36 0 0 9.36 0 20.9L0 54.68C0 66.23 9.36 75.59 20.9 75.59L54.68 75.59C66.23 75.59 75.59 66.23 75.59 54.68L75.59 20.9C75.59 9.36 66.23 0 54.68 0Z" fill="#5CC97B" fill-opacity="1.000000" fill-rule="nonzero"/>
	</g>
	<path id="Vector" d="M37.79 63.53C52.01 63.53 63.53 52.01 63.53 37.79C63.53 23.58 52.01 12.05 37.79 12.05C23.58 12.05 12.05 23.58 12.05 37.79C12.05 52.01 23.58 63.53 37.79 63.53Z" fill="#5CC97B" fill-opacity="1.000000" fill-rule="nonzero"/>
	<path id="Vector" d="M40.55 44.16C38.71 45.38 36.48 46.05 34.1 45.96C28.09 45.71 23.42 40.64 23.67 34.63C23.92 28.62 28.99 23.95 35 24.19C41.01 24.44 45.68 29.52 45.43 35.52C45.34 37.64 44.66 39.59 43.54 41.22L50.88 48.35C51.78 49.33 51.75 50.85 50.82 51.79L50.78 51.82L50.73 51.86C49.72 52.71 48.21 52.62 47.3 51.64L40.55 44.16ZM34.2 43.44C29.58 43.25 25.99 39.35 26.18 34.73C26.37 30.11 30.27 26.51 34.9 26.71C39.52 26.9 43.11 30.8 42.92 35.42C42.73 40.04 38.83 43.64 34.2 43.44Z" fill="#FFFFFF" fill-opacity="1.000000" fill-rule="evenodd"/>
</svg>
