<svg width="14.295006" height="13.500977" viewBox="0 0 14.295 13.501" fill="none" xmlns="http://www.w3.org/2000/svg" xmlns:xlink="http://www.w3.org/1999/xlink">
	<desc>
			Created with Pixso.
	</desc>
	<defs/>
	<path id="Vector" d="M3 1.5C2.99 1.89 2.84 2.27 2.56 2.56C2.27 2.84 1.89 3 1.49 3C1.1 3 0.71 2.84 0.43 2.56C0.15 2.27 -0.01 1.89 0 1.49C0 1.1 0.15 0.72 0.43 0.43C0.72 0.15 1.1 0 1.5 0C1.89 0 2.28 0.15 2.56 0.43C2.84 0.72 3 1.1 3 1.5ZM3.04 4.11L0.04 4.11L0.04 13.5L3.04 13.5L3.04 4.11ZM7.78 4.11L4.8 4.11L4.8 13.5L7.75 13.5L7.75 8.57C7.75 5.82 11.33 5.57 11.33 8.57L11.33 13.5L14.29 13.5L14.29 7.55C14.29 2.92 9 3.09 7.75 5.37L7.78 4.11Z" fill="#75757F" fill-opacity="1.000000" fill-rule="nonzero"/>
</svg>
