<svg width="210.000000" height="78.750000" viewBox="0 0 210 78.75" fill="none" xmlns="http://www.w3.org/2000/svg" xmlns:xlink="http://www.w3.org/1999/xlink">
	<desc>
			Created with Pixso.
	</desc>
	<defs>
		<clipPath id="clip1_102">
			<rect id="62fbcc4e6f486717da802261_Luminous%20Logo.svg" width="210.000000" height="78.750000" fill="white" fill-opacity="0"/>
		</clipPath>
	</defs>
	<g clip-path="url(#clip1_102)">
		<path id="Vector" d="M29.69 28.02C31.84 26.06 34.77 24.92 37.73 24.78C38.75 24.78 39.77 24.78 40.78 24.77C40.73 25.81 40.78 26.85 40.75 27.89C40.61 30.21 39.71 32.47 38.19 34.29C36.23 36.74 33.22 38.38 30.02 38.81C28.62 39.02 27.21 38.89 25.8 38.92C25.83 37.78 25.75 36.64 25.85 35.5C26.12 32.67 27.52 29.97 29.69 28.02Z" fill="#81818B" fill-opacity="1.000000" fill-rule="nonzero"/>
		<path id="Vector" d="M41.72 24.77C42.81 24.78 43.9 24.77 44.99 24.78C47.7 24.96 50.38 25.96 52.42 27.68C54.68 29.52 56.22 32.16 56.62 34.98C56.79 36.29 56.68 37.61 56.75 38.93C55.8 38.92 54.85 38.92 53.9 38.93C51.57 38.87 49.27 38.15 47.31 36.93C46.41 36.31 45.48 35.69 44.81 34.83C43.32 33.25 42.32 31.27 41.93 29.18C41.65 27.72 41.76 26.24 41.72 24.77Z" fill="#81818B" fill-opacity="1.000000" fill-rule="nonzero"/>
		<path id="Vector" d="M25.8 39.76C26.77 39.81 27.74 39.71 28.7 39.82C32.82 39.9 36.83 42.11 38.96 45.47C40.19 47.36 40.84 49.59 40.76 51.81C40.76 52.53 40.77 53.26 40.75 53.98C39.22 53.94 37.67 54.06 36.16 53.77C32.79 53.23 29.7 51.32 27.84 48.6C26.43 46.61 25.73 44.19 25.8 41.8C25.8 41.12 25.8 40.44 25.8 39.76Z" fill="#81818B" fill-opacity="1.000000" fill-rule="nonzero"/>
		<path id="Vector" d="M51.6 40.07C53.26 39.71 54.97 39.77 56.66 39.77L56.73 39.84C56.69 41.36 56.82 42.9 56.5 44.4C55.82 47.77 53.48 50.79 50.34 52.44C48.38 53.48 46.13 53.99 43.89 53.97C43.17 53.97 42.45 53.96 41.74 53.98C41.74 52.72 41.68 51.45 41.83 50.2C42.18 47.17 43.9 44.35 46.37 42.44C47.9 41.29 49.7 40.46 51.6 40.07Z" fill="#81818B" fill-opacity="1.000000" fill-rule="nonzero"/>
		<path id="Vector" d="M69.24 48.35C69.24 48.86 69.05 49.29 68.68 49.65C68.33 49.98 67.89 50.15 67.35 50.15C66.83 50.15 66.4 49.98 66.05 49.65C65.7 49.29 65.52 48.86 65.52 48.35L65.52 30.11C65.52 29.6 65.7 29.17 66.05 28.84C66.42 28.48 66.87 28.31 67.41 28.31C67.95 28.31 68.38 28.48 68.71 28.84C69.06 29.17 69.24 29.6 69.24 30.11L69.24 48.35Z" fill="#81818B" fill-opacity="1.000000" fill-rule="nonzero"/>
		<path id="Vector" d="M84.14 34.36C84.68 34.36 85.12 34.53 85.47 34.89C85.82 35.22 86 35.65 86 36.16L86 43.66C86 45.74 85.39 47.4 84.17 48.62C82.96 49.84 81.2 50.45 78.91 50.45C76.62 50.45 74.87 49.84 73.65 48.62C72.46 47.4 71.86 45.74 71.86 43.66L71.86 36.16C71.86 35.65 72.03 35.22 72.38 34.89C72.73 34.53 73.18 34.36 73.71 34.36C74.25 34.36 74.69 34.53 75.04 34.89C75.4 35.22 75.57 35.65 75.57 36.16L75.57 43.66C75.57 44.86 75.85 45.75 76.41 46.34C76.96 46.91 77.8 47.2 78.91 47.2C80.05 47.2 80.89 46.91 81.45 46.34C82.01 45.75 82.29 44.86 82.29 43.66L82.29 36.16C82.29 35.65 82.46 35.22 82.81 34.89C83.16 34.53 83.61 34.36 84.14 34.36Z" fill="#81818B" fill-opacity="1.000000" fill-rule="nonzero"/>
		<path id="Vector" d="M97.17 34.06C98.82 34.06 100.04 34.45 100.82 35.21C101.6 35.96 102.12 36.94 102.37 38.14L101.84 37.87L102.09 37.4C102.34 36.95 102.72 36.46 103.23 35.95C103.75 35.42 104.37 34.98 105.09 34.62C105.83 34.25 106.66 34.06 107.57 34.06C109.05 34.06 110.18 34.37 110.94 34.98C111.72 35.59 112.26 36.4 112.55 37.43C112.84 38.43 112.98 39.55 112.98 40.79L112.98 48.35C112.98 48.86 112.81 49.29 112.46 49.65C112.11 49.98 111.66 50.15 111.13 50.15C110.59 50.15 110.15 49.98 109.8 49.65C109.44 49.29 109.27 48.86 109.27 48.35L109.27 40.79C109.27 40.14 109.19 39.56 109.02 39.05C108.86 38.52 108.56 38.1 108.12 37.78C107.69 37.47 107.07 37.31 106.27 37.31C105.48 37.31 104.81 37.47 104.26 37.78C103.7 38.1 103.28 38.52 102.99 39.05C102.72 39.56 102.58 40.14 102.58 40.79L102.58 48.35C102.58 48.86 102.41 49.29 102.06 49.65C101.71 49.98 101.26 50.15 100.73 50.15C100.19 50.15 99.75 49.98 99.4 49.65C99.05 49.29 98.87 48.86 98.87 48.35L98.87 40.79C98.87 40.14 98.79 39.56 98.62 39.05C98.46 38.52 98.16 38.1 97.73 37.78C97.29 37.47 96.67 37.31 95.87 37.31C95.08 37.31 94.41 37.47 93.86 37.78C93.3 38.1 92.88 38.52 92.59 39.05C92.32 39.56 92.19 40.14 92.19 40.79L92.19 48.35C92.19 48.86 92.01 49.29 91.66 49.65C91.31 49.98 90.87 50.15 90.33 50.15C89.79 50.15 89.35 49.98 89 49.65C88.65 49.29 88.47 48.86 88.47 48.35L88.47 36.16C88.47 35.65 88.65 35.22 89 34.89C89.35 34.53 89.79 34.36 90.33 34.36C90.87 34.36 91.31 34.53 91.66 34.89C92.01 35.22 92.19 35.65 92.19 36.16L92.19 37.43L91.72 37.34C91.91 37 92.17 36.65 92.5 36.28C92.83 35.88 93.23 35.52 93.7 35.18C94.18 34.85 94.7 34.58 95.28 34.39C95.86 34.17 96.49 34.06 97.17 34.06Z" fill="#81818B" fill-opacity="1.000000" fill-rule="nonzero"/>
		<path id="Vector" d="M118.95 48.35C118.95 48.86 118.78 49.29 118.43 49.65C118.07 49.98 117.63 50.15 117.09 50.15C116.56 50.15 116.11 49.98 115.76 49.65C115.41 49.29 115.24 48.86 115.24 48.35L115.24 36.16C115.24 35.65 115.41 35.22 115.76 34.89C116.11 34.53 116.56 34.36 117.09 34.36C117.63 34.36 118.07 34.53 118.43 34.89C118.78 35.22 118.95 35.65 118.95 36.16L118.95 48.35ZM117.06 32.44C116.36 32.44 115.87 32.33 115.58 32.11C115.29 31.9 115.15 31.51 115.15 30.96L115.15 30.4C115.15 29.83 115.3 29.45 115.61 29.25C115.94 29.03 116.43 28.93 117.09 28.93C117.82 28.93 118.32 29.03 118.61 29.25C118.9 29.47 119.04 29.85 119.04 30.4L119.04 30.96C119.04 31.53 118.89 31.93 118.58 32.14C118.27 32.34 117.77 32.44 117.06 32.44Z" fill="#81818B" fill-opacity="1.000000" fill-rule="nonzero"/>
		<path id="Vector" d="M130.07 34.06C131.6 34.06 132.75 34.37 133.54 34.98C134.34 35.59 134.89 36.4 135.18 37.43C135.49 38.43 135.64 39.55 135.64 40.79L135.64 48.35C135.64 48.86 135.47 49.29 135.12 49.65C134.77 49.98 134.32 50.15 133.78 50.15C133.25 50.15 132.81 49.98 132.45 49.65C132.1 49.29 131.93 48.86 131.93 48.35L131.93 40.79C131.93 40.14 131.84 39.56 131.65 39.05C131.48 38.52 131.17 38.1 130.72 37.78C130.27 37.47 129.62 37.31 128.77 37.31C127.95 37.31 127.25 37.47 126.67 37.78C126.11 38.1 125.68 38.52 125.37 39.05C125.08 39.56 124.93 40.14 124.93 40.79L124.93 48.35C124.93 48.86 124.76 49.29 124.41 49.65C124.06 49.98 123.61 50.15 123.08 50.15C122.54 50.15 122.1 49.98 121.75 49.65C121.4 49.29 121.22 48.86 121.22 48.35L121.22 36.16C121.22 35.65 121.4 35.22 121.75 34.89C122.1 34.53 122.54 34.36 123.08 34.36C123.61 34.36 124.06 34.53 124.41 34.89C124.76 35.22 124.93 35.65 124.93 36.16L124.93 37.43L124.47 37.34C124.66 37 124.92 36.65 125.27 36.28C125.63 35.88 126.04 35.52 126.51 35.18C126.99 34.85 127.52 34.58 128.12 34.39C128.72 34.17 129.37 34.06 130.07 34.06Z" fill="#81818B" fill-opacity="1.000000" fill-rule="nonzero"/>
		<path id="Vector" d="M154.02 42.27C154.02 43.88 153.63 45.31 152.87 46.55C152.13 47.77 151.12 48.72 149.84 49.41C148.58 50.1 147.17 50.45 145.6 50.45C144.03 50.45 142.61 50.1 141.33 49.41C140.07 48.72 139.06 47.77 138.29 46.55C137.55 45.31 137.18 43.88 137.18 42.27C137.18 40.66 137.55 39.24 138.29 38.02C139.06 36.78 140.07 35.81 141.33 35.13C142.61 34.42 144.03 34.06 145.6 34.06C147.17 34.06 148.58 34.42 149.84 35.13C151.12 35.81 152.13 36.78 152.87 38.02C153.63 39.24 154.02 40.66 154.02 42.27ZM150.3 42.27C150.3 41.27 150.09 40.4 149.65 39.67C149.24 38.92 148.67 38.34 147.95 37.93C147.25 37.52 146.46 37.31 145.6 37.31C144.73 37.31 143.94 37.52 143.21 37.93C142.51 38.34 141.95 38.92 141.51 39.67C141.1 40.4 140.89 41.27 140.89 42.27C140.89 43.25 141.1 44.12 141.51 44.87C141.95 45.6 142.51 46.17 143.21 46.58C143.94 46.99 144.73 47.2 145.6 47.2C146.46 47.2 147.25 46.99 147.95 46.58C148.67 46.17 149.24 45.6 149.65 44.87C150.09 44.12 150.3 43.25 150.3 42.27Z" fill="#81818B" fill-opacity="1.000000" fill-rule="nonzero"/>
		<path id="Vector" d="M167.86 34.36C168.39 34.36 168.84 34.53 169.19 34.89C169.54 35.22 169.71 35.65 169.71 36.16L169.71 43.66C169.71 45.74 169.1 47.4 167.89 48.62C166.67 49.84 164.92 50.45 162.63 50.45C160.34 50.45 158.58 49.84 157.37 48.62C156.17 47.4 155.57 45.74 155.57 43.66L155.57 36.16C155.57 35.65 155.75 35.22 156.1 34.89C156.45 34.53 156.89 34.36 157.43 34.36C157.96 34.36 158.41 34.53 158.76 34.89C159.11 35.22 159.28 35.65 159.28 36.16L159.28 43.66C159.28 44.86 159.56 45.75 160.12 46.34C160.68 46.91 161.51 47.2 162.63 47.2C163.76 47.2 164.61 46.91 165.16 46.34C165.72 45.75 166 44.86 166 43.66L166 36.16C166 35.65 166.18 35.22 166.53 34.89C166.88 34.53 167.32 34.36 167.86 34.36Z" fill="#81818B" fill-opacity="1.000000" fill-rule="nonzero"/>
		<path id="Vector" d="M171.23 47.7C171.02 47.43 170.93 47.07 170.95 46.64C170.97 46.21 171.24 45.83 171.75 45.52C172.08 45.32 172.43 45.24 172.81 45.28C173.18 45.3 173.54 45.48 173.89 45.81C174.49 46.38 175.12 46.83 175.78 47.14C176.44 47.46 177.26 47.61 178.25 47.61C178.56 47.59 178.9 47.55 179.27 47.49C179.64 47.42 179.96 47.26 180.23 47.02C180.52 46.77 180.67 46.38 180.67 45.87C180.67 45.44 180.51 45.09 180.2 44.84C179.89 44.58 179.48 44.37 178.96 44.19C178.47 44.01 177.91 43.84 177.29 43.69C176.65 43.51 175.99 43.31 175.31 43.1C174.65 42.88 174.04 42.6 173.49 42.27C172.93 41.92 172.48 41.45 172.12 40.88C171.77 40.31 171.6 39.59 171.6 38.73C171.6 37.74 171.89 36.91 172.46 36.22C173.04 35.53 173.79 35 174.69 34.62C175.62 34.25 176.59 34.06 177.6 34.06C178.24 34.06 178.91 34.14 179.61 34.3C180.31 34.44 180.99 34.67 181.63 35.01C182.26 35.32 182.8 35.75 183.23 36.28C183.46 36.57 183.6 36.93 183.64 37.34C183.68 37.75 183.48 38.13 183.05 38.46C182.74 38.7 182.38 38.81 181.97 38.79C181.55 38.75 181.21 38.61 180.94 38.37C180.59 37.94 180.12 37.6 179.52 37.34C178.94 37.08 178.27 36.96 177.51 36.96C177.2 36.96 176.86 37 176.49 37.07C176.14 37.13 175.83 37.28 175.56 37.52C175.29 37.73 175.16 38.09 175.16 38.58C175.16 39.03 175.31 39.4 175.62 39.67C175.93 39.93 176.34 40.14 176.86 40.32C177.4 40.48 177.96 40.64 178.56 40.79C179.18 40.95 179.81 41.14 180.45 41.35C181.09 41.57 181.68 41.86 182.21 42.21C182.75 42.56 183.18 43.03 183.51 43.6C183.84 44.15 184.01 44.86 184.01 45.72C184.01 46.73 183.7 47.58 183.08 48.29C182.46 49 181.69 49.54 180.76 49.92C179.83 50.27 178.88 50.45 177.91 50.45C176.69 50.45 175.48 50.25 174.26 49.86C173.04 49.44 172.03 48.72 171.23 47.7Z" fill="#81818B" fill-opacity="1.000000" fill-rule="nonzero"/>
	</g>
</svg>
