<svg width="210.000000" height="78.750000" viewBox="0 0 210 78.75" fill="none" xmlns="http://www.w3.org/2000/svg" xmlns:xlink="http://www.w3.org/1999/xlink">
	<desc>
			Created with Pixso.
	</desc>
	<defs>
		<clipPath id="clip1_116">
			<rect id="62fbcc5bef501c294e129186_Sitemark%20Logo.svg" width="210.000000" height="78.750000" fill="white" fill-opacity="0"/>
		</clipPath>
	</defs>
	<g clip-path="url(#clip1_116)">
		<path id="Vector" d="M22.99 45.12L34.65 40.07L41.36 43.86L42.72 56.29L34.45 56.23L35.67 47.58L34.24 46.79L27.26 52.1L22.99 45.12Z" fill="#81818B" fill-opacity="1.000000" fill-rule="nonzero"/>
		<path id="Vector" d="M42.11 43.33L52.41 50.71L56.48 43.59L48.21 40.34L48.21 38.74L56.48 35.42L52.41 28.37L42.11 35.75L42.11 43.33Z" fill="#81818B" fill-opacity="1.000000" fill-rule="nonzero"/>
		<path id="Vector" d="M41.36 35.15L42.72 22.72L34.45 22.85L35.67 31.49L34.24 32.29L27.19 26.97L22.99 33.89L34.65 38.94L41.36 35.15Z" fill="#81818B" fill-opacity="1.000000" fill-rule="nonzero"/>
		<path id="Vector" d="M84.07 38.02L84.07 49.66L88.52 49.66L88.52 34.82L82.04 34.82L82.04 38.02L84.07 38.02Z" fill="#81818B" fill-opacity="1.000000" fill-rule="nonzero"/>
		<path id="Vector" d="M83.93 32.73C84.34 33.15 84.96 33.36 85.79 33.36C86.63 33.36 87.24 33.15 87.63 32.73C88.04 32.3 88.24 31.76 88.24 31.11C88.24 30.44 88.04 29.9 87.63 29.48C87.24 29.05 86.63 28.83 85.79 28.83C84.96 28.83 84.34 29.05 83.93 29.48C83.54 29.9 83.34 30.44 83.34 31.11C83.34 31.76 83.54 32.3 83.93 32.73Z" fill="#81818B" fill-opacity="1.000000" fill-rule="nonzero"/>
		<path id="Vector" d="M68.57 49.34C69.83 49.9 71.38 50.18 73.22 50.18C74.94 50.18 76.43 49.92 77.67 49.39C78.91 48.87 79.87 48.14 80.53 47.2C81.22 46.24 81.56 45.13 81.56 43.87C81.56 42.64 81.24 41.6 80.59 40.75C79.96 39.88 79.08 39.21 77.95 38.72C76.82 38.21 75.51 37.9 74.02 37.77L72.47 37.64C71.54 37.56 70.87 37.32 70.46 36.9C70.06 36.49 69.85 36 69.85 35.44C69.85 35.01 69.96 34.61 70.19 34.25C70.41 33.87 70.74 33.57 71.19 33.36C71.65 33.14 72.22 33.03 72.88 33.03C73.59 33.03 74.17 33.16 74.64 33.41C74.74 33.46 74.84 33.52 74.93 33.58L74.95 33.6C74.98 33.62 75.02 33.64 75.05 33.67C75.33 33.88 75.56 34.13 75.72 34.41C75.96 34.81 76.08 35.25 76.08 35.74L80.53 35.74C80.53 34.44 80.23 33.31 79.62 32.35C79 31.38 78.12 30.63 76.97 30.11C75.84 29.56 74.48 29.29 72.88 29.29C71.36 29.29 70.05 29.55 68.93 30.05C67.82 30.54 66.95 31.24 66.32 32.16C65.71 33.09 65.4 34.18 65.4 35.44C65.4 37.19 66 38.6 67.21 39.67C68.41 40.73 70.03 41.35 72.05 41.51L73.58 41.65C74.82 41.75 75.72 42 76.28 42.38C76.83 42.74 77.11 43.23 77.11 43.87C77.11 44.16 77.06 44.43 76.97 44.68C76.89 44.87 76.79 45.05 76.67 45.22C76.37 45.6 75.94 45.9 75.36 46.11C74.79 46.33 74.07 46.44 73.22 46.44C72.27 46.44 71.5 46.31 70.91 46.06C70.32 45.79 69.87 45.44 69.57 45C69.3 44.57 69.16 44.1 69.16 43.6L64.73 43.6C64.73 44.88 65.06 46.02 65.71 47.01C66.36 47.98 67.31 48.76 68.57 49.34Z" fill="#81818B" fill-opacity="1.000000" fill-rule="nonzero"/>
		<path id="Vector" d="M98.45 49.85C96.91 49.85 95.67 49.67 94.72 49.31C93.78 48.93 93.08 48.31 92.64 47.44C92.21 46.56 92 45.37 92 43.87L92 37.99L89.69 37.99L89.69 34.82L92 34.82L92 30.81L96.14 30.81L96.14 34.82L100.59 34.82L100.59 37.99L96.14 37.99L96.14 44.03C96.14 44.73 96.33 45.27 96.7 45.65C97.09 46.02 97.63 46.2 98.34 46.2L100.59 46.2L100.59 49.85L98.45 49.85Z" fill="#81818B" fill-opacity="1.000000" fill-rule="nonzero"/>
		<path id="Vector" d="M105.95 49.53C106.95 49.96 108.1 50.18 109.4 50.18C110.68 50.18 111.81 49.96 112.79 49.53C113.78 49.09 114.59 48.49 115.24 47.71C115.89 46.94 116.33 46.05 116.55 45.06L112.46 45.06C112.28 45.51 111.92 45.89 111.4 46.2C110.88 46.5 110.22 46.66 109.4 46.66C108.9 46.66 108.44 46.6 108.05 46.48C107.74 46.39 107.47 46.27 107.23 46.11C106.67 45.75 106.27 45.25 106.01 44.6C105.93 44.41 105.87 44.22 105.82 44.02C105.77 43.81 105.73 43.6 105.69 43.38L116.83 43.38L116.83 41.92C116.83 40.56 116.53 39.32 115.94 38.18C115.34 37.02 114.48 36.09 113.35 35.39C112.24 34.67 110.87 34.3 109.23 34.3C107.99 34.3 106.88 34.52 105.9 34.95C104.93 35.37 104.12 35.94 103.48 36.66C102.83 37.38 102.33 38.21 101.97 39.13C101.64 40.03 101.47 40.98 101.47 41.97L101.47 42.51C101.47 43.47 101.64 44.41 101.97 45.33C102.33 46.23 102.83 47.05 103.48 47.79C104.14 48.52 104.97 49.09 105.95 49.53ZM105.77 40.7C105.78 40.64 105.8 40.59 105.81 40.53C105.85 40.38 105.89 40.23 105.94 40.09C105.97 40.01 106 39.93 106.03 39.86C106.31 39.19 106.72 38.68 107.26 38.34C107.46 38.21 107.68 38.11 107.91 38.03C108.31 37.89 108.75 37.83 109.23 37.83C109.99 37.83 110.62 38 111.13 38.34C111.64 38.67 112.03 39.14 112.29 39.78C112.32 39.83 112.34 39.88 112.35 39.93C112.38 40.02 112.41 40.1 112.44 40.19C112.48 40.32 112.51 40.46 112.54 40.6C112.57 40.7 112.58 40.81 112.6 40.91L105.73 40.91C105.74 40.84 105.75 40.77 105.77 40.7Z" fill="#81818B" fill-opacity="1.000000" fill-rule="evenodd"/>
		<path id="Vector" d="M118.67 49.66L118.67 34.82L122.2 34.82L122.2 38.56C122.25 38.34 122.3 38.12 122.36 37.92C122.41 37.75 122.47 37.58 122.53 37.42C122.92 36.41 123.51 35.65 124.28 35.14C125.06 34.62 126.02 34.36 127.15 34.36L127.34 34.36C128.5 34.36 129.45 34.62 130.21 35.14C130.99 35.65 131.57 36.41 131.96 37.42L131.99 37.5L132.02 37.57C132.04 37.52 132.06 37.47 132.07 37.42C132.48 36.41 133.08 35.65 133.85 35.14C134.63 34.62 135.59 34.36 136.72 34.36L136.91 34.36C138.06 34.36 139.03 34.62 139.81 35.14C140.61 35.65 141.21 36.41 141.62 37.42C142.02 38.43 142.23 39.69 142.23 41.21L142.23 49.66L137.78 49.66L137.78 40.97C137.78 40.16 137.55 39.5 137.11 38.99C136.68 38.48 136.07 38.23 135.27 38.23C134.48 38.23 133.85 38.49 133.38 39.02C132.92 39.52 132.69 40.2 132.69 41.05L132.69 49.66L128.21 49.66L128.21 40.97C128.21 40.16 127.98 39.5 127.54 38.99C127.11 38.48 126.51 38.23 125.73 38.23C124.92 38.23 124.28 38.49 123.81 39.02C123.35 39.52 123.12 40.2 123.12 41.05L123.12 49.66L118.67 49.66Z" fill="#81818B" fill-opacity="1.000000" fill-rule="nonzero"/>
		<path id="Vector" d="M154.12 46.8L154.12 49.66L157.65 49.66L157.65 40.56C157.65 39.19 157.37 38.07 156.82 37.2C156.26 36.32 155.44 35.66 154.37 35.23C153.31 34.79 152 34.58 150.45 34.58C150.11 34.58 149.75 34.58 149.39 34.59C149.17 34.59 148.95 34.6 148.72 34.6C148.11 34.62 147.52 34.65 146.94 34.68L146.5 34.71C146.28 34.73 146.06 34.74 145.86 34.76C145.71 34.77 145.57 34.78 145.44 34.79L145.44 38.45C146.01 38.41 146.65 38.38 147.36 38.34C147.56 38.33 147.75 38.32 147.94 38.31C148.22 38.3 148.5 38.29 148.77 38.28C148.99 38.27 149.2 38.26 149.42 38.26C150.08 38.24 150.62 38.23 151.03 38.23C151.85 38.23 152.44 38.42 152.81 38.8C153.18 39.18 153.37 39.75 153.37 40.51L153.37 40.56L150.61 40.56C149.26 40.56 148.06 40.73 147.02 41.08C145.99 41.4 145.18 41.92 144.6 42.62C144.03 43.31 143.74 44.19 143.74 45.27C143.74 46.27 143.97 47.13 144.44 47.85C144.9 48.55 145.54 49.09 146.36 49.47C147.19 49.85 148.16 50.04 149.25 50.04C150.31 50.04 151.2 49.85 151.92 49.47C152.66 49.09 153.24 48.55 153.64 47.85C153.72 47.73 153.78 47.61 153.85 47.48C153.93 47.3 154.01 47.11 154.08 46.91L154.12 46.8ZM153.37 44.16L153.37 42.97L150.58 42.97C149.81 42.97 149.2 43.16 148.78 43.54C148.37 43.9 148.16 44.4 148.16 45.03C148.16 45.33 148.22 45.6 148.32 45.84C148.42 46.09 148.57 46.3 148.78 46.49C149.2 46.86 149.81 47.04 150.58 47.04C150.73 47.04 150.88 47.03 151.01 47.01C151.13 47 151.24 46.99 151.34 46.97C151.55 46.93 151.74 46.87 151.92 46.79C152.33 46.61 152.66 46.31 152.92 45.9C153.18 45.48 153.33 44.9 153.37 44.16Z" fill="#81818B" fill-opacity="1.000000" fill-rule="evenodd"/>
		<path id="Vector" d="M160.31 49.66L160.31 34.82L163.85 34.82L163.85 39.72C164.02 38.32 164.44 37.19 165.13 36.34C166.06 35.2 167.39 34.63 169.13 34.63L169.72 34.63L169.72 38.37L168.6 38.37C167.38 38.37 166.44 38.69 165.77 39.34C165.1 39.97 164.77 40.9 164.77 42.11L164.77 49.66L160.31 49.66Z" fill="#81818B" fill-opacity="1.000000" fill-rule="nonzero"/>
		<path id="Vector" d="M175.36 42.73L176.84 42.73L181.65 49.66L186.66 49.66L180.55 41.15L185.57 34.82L180.9 34.82L175.36 41.88L175.36 29.89L170.91 29.89L170.91 49.66L175.36 49.66L175.36 42.73Z" fill="#81818B" fill-opacity="1.000000" fill-rule="nonzero"/>
	</g>
</svg>
