<svg width="210.000000" height="78.750000" viewBox="0 0 210 78.75" fill="none" xmlns="http://www.w3.org/2000/svg" xmlns:xlink="http://www.w3.org/1999/xlink">
	<desc>
			Created with Pixso.
	</desc>
	<defs>
		<clipPath id="clip1_130">
			<rect id="62fbd170e519139c79642e53_Pronature%20Logo.svg" width="210.000000" height="78.750000" fill="white" fill-opacity="0"/>
		</clipPath>
	</defs>
	<g clip-path="url(#clip1_130)">
		<path id="Vector" d="M71.06 30.53C72.65 30.53 74.02 30.79 75.19 31.3C76.36 31.81 77.27 32.53 77.9 33.47C78.53 34.41 78.85 35.53 78.85 36.81C78.85 38.08 78.53 39.19 77.9 40.15C77.27 41.09 76.36 41.81 75.19 42.33C74.02 42.82 72.65 43.07 71.06 43.07L67.45 43.07L67.45 47.84L63.31 47.84L63.31 30.53L71.06 30.53ZM70.83 39.8C72.08 39.8 73.03 39.55 73.67 39.04C74.32 38.51 74.65 37.77 74.65 36.81C74.65 35.84 74.32 35.1 73.67 34.59C73.03 34.06 72.08 33.79 70.83 33.79L67.45 33.79L67.45 39.8L70.83 39.8Z" fill="#81818B" fill-opacity="1.000000" fill-rule="nonzero"/>
		<path id="Vector" d="M84.06 36.29C84.54 35.65 85.18 35.16 85.98 34.83C86.8 34.5 87.74 34.34 88.8 34.34L88.8 37.9C88.35 37.87 88.05 37.85 87.9 37.85C86.76 37.85 85.86 38.16 85.21 38.79C84.56 39.4 84.24 40.32 84.24 41.56L84.24 47.84L80.25 47.84L80.25 34.54L84.06 34.54L84.06 36.29Z" fill="#81818B" fill-opacity="1.000000" fill-rule="nonzero"/>
		<path id="Vector" d="M96.32 48.04C94.87 48.04 93.56 47.75 92.4 47.17C91.26 46.58 90.36 45.76 89.71 44.72C89.07 43.69 88.74 42.51 88.74 41.19C88.74 39.87 89.07 38.69 89.71 37.65C90.36 36.61 91.26 35.81 92.4 35.23C93.56 34.63 94.87 34.34 96.32 34.34C97.77 34.34 99.07 34.63 100.21 35.23C101.35 35.81 102.25 36.61 102.9 37.65C103.55 38.69 103.87 39.87 103.87 41.19C103.87 42.51 103.55 43.69 102.9 44.72C102.25 45.76 101.35 46.58 100.21 47.17C99.07 47.75 97.77 48.04 96.32 48.04ZM96.32 44.87C97.34 44.87 98.18 44.54 98.83 43.88C99.49 43.21 99.83 42.31 99.83 41.19C99.83 40.07 99.49 39.18 98.83 38.52C98.18 37.84 97.34 37.5 96.32 37.5C95.3 37.5 94.45 37.84 93.78 38.52C93.12 39.18 92.79 40.07 92.79 41.19C92.79 42.31 93.12 43.21 93.78 43.88C94.45 44.54 95.3 44.87 96.32 44.87Z" fill="#81818B" fill-opacity="1.000000" fill-rule="nonzero"/>
		<path id="Vector" d="M121.98 30.53L121.98 47.84L118.57 47.84L109.64 37.33L109.64 47.84L105.54 47.84L105.54 30.53L108.97 30.53L117.88 41.04L117.88 30.53L121.98 30.53Z" fill="#81818B" fill-opacity="1.000000" fill-rule="nonzero"/>
		<path id="Vector" d="M130.21 34.34C132.34 34.34 133.98 34.83 135.13 35.82C136.27 36.79 136.84 38.27 136.84 40.25L136.84 47.84L133.1 47.84L133.1 46.18C132.35 47.42 130.95 48.04 128.91 48.04C127.85 48.04 126.93 47.87 126.14 47.52C125.37 47.17 124.78 46.69 124.37 46.08C123.97 45.47 123.76 44.78 123.76 44.01C123.76 42.77 124.24 41.8 125.19 41.09C126.17 40.38 127.66 40.03 129.67 40.03L132.85 40.03C132.85 39.18 132.58 38.54 132.05 38.1C131.53 37.64 130.73 37.4 129.67 37.4C128.94 37.4 128.21 37.52 127.5 37.75C126.8 37.97 126.2 38.26 125.71 38.64L124.27 35.95C125.02 35.43 125.92 35.04 126.96 34.76C128.02 34.48 129.1 34.34 130.21 34.34ZM129.9 45.44C130.59 45.44 131.19 45.29 131.72 45C132.25 44.68 132.63 44.23 132.85 43.64L132.85 42.28L130.11 42.28C128.47 42.28 127.65 42.8 127.65 43.83C127.65 44.33 127.85 44.72 128.24 45.02C128.65 45.3 129.2 45.44 129.9 45.44Z" fill="#81818B" fill-opacity="1.000000" fill-rule="nonzero"/>
		<path id="Vector" d="M148.06 47.2C147.67 47.48 147.18 47.69 146.6 47.84C146.04 47.97 145.44 48.04 144.81 48.04C143.17 48.04 141.9 47.63 140.99 46.83C140.11 46.02 139.66 44.83 139.66 43.27L139.66 37.8L137.54 37.8L137.54 34.83L139.66 34.83L139.66 31.59L143.66 31.59L143.66 34.83L147.09 34.83L147.09 37.8L143.66 37.8L143.66 43.22C143.66 43.78 143.8 44.21 144.09 44.53C144.4 44.82 144.83 44.97 145.37 44.97C146 44.97 146.54 44.81 146.98 44.48L148.06 47.2Z" fill="#81818B" fill-opacity="1.000000" fill-rule="nonzero"/>
		<path id="Vector" d="M162.9 34.54L162.9 47.84L159.11 47.84L159.11 46.26C158.58 46.83 157.95 47.28 157.21 47.59C156.48 47.89 155.69 48.04 154.83 48.04C153.02 48.04 151.59 47.54 150.53 46.53C149.47 45.52 148.94 44.03 148.94 42.05L148.94 34.54L152.94 34.54L152.94 41.48C152.94 43.63 153.87 44.7 155.73 44.7C156.68 44.7 157.45 44.4 158.03 43.81C158.61 43.2 158.9 42.3 158.9 41.11L158.9 34.54L162.9 34.54Z" fill="#81818B" fill-opacity="1.000000" fill-rule="nonzero"/>
		<path id="Vector" d="M169.13 36.29C169.61 35.65 170.25 35.16 171.05 34.83C171.87 34.5 172.81 34.34 173.87 34.34L173.87 37.9C173.42 37.87 173.12 37.85 172.97 37.85C171.83 37.85 170.93 38.16 170.28 38.79C169.63 39.4 169.31 40.32 169.31 41.56L169.31 47.84L165.32 47.84L165.32 34.54L169.13 34.54L169.13 36.29Z" fill="#81818B" fill-opacity="1.000000" fill-rule="nonzero"/>
		<path id="Vector" d="M188.33 41.24C188.33 41.29 188.3 41.63 188.25 42.28L177.83 42.28C178.02 43.1 178.46 43.75 179.16 44.23C179.86 44.71 180.73 44.95 181.77 44.95C182.49 44.95 183.12 44.85 183.67 44.65C184.23 44.44 184.75 44.11 185.23 43.66L187.36 45.89C186.06 47.32 184.16 48.04 181.67 48.04C180.12 48.04 178.75 47.75 177.55 47.17C176.36 46.58 175.43 45.76 174.79 44.72C174.14 43.69 173.81 42.51 173.81 41.19C173.81 39.89 174.13 38.72 174.76 37.68C175.41 36.62 176.29 35.81 177.4 35.23C178.52 34.63 179.78 34.34 181.16 34.34C182.51 34.34 183.73 34.62 184.82 35.18C185.91 35.74 186.77 36.55 187.38 37.6C188.01 38.64 188.33 39.85 188.33 41.24ZM181.19 37.26C180.28 37.26 179.52 37.5 178.91 38C178.29 38.49 177.92 39.17 177.78 40.03L184.57 40.03C184.43 39.18 184.05 38.52 183.44 38.02C182.82 37.51 182.07 37.26 181.19 37.26Z" fill="#81818B" fill-opacity="1.000000" fill-rule="nonzero"/>
		<path id="Vector" d="M40.56 20.89C39.95 20.55 39.2 20.55 38.6 20.89C34.27 23.3 31.36 27.82 31.36 33C31.36 33.74 31.42 34.46 31.53 35.17C28.56 34.2 25.34 34.55 22.7 36.02C22.09 36.35 21.72 36.98 21.72 37.66C21.72 41.24 23.65 44.73 27.1 46.66C28.79 47.6 30.64 48.05 32.46 48.05C32.19 48.81 32.03 49.63 32.03 50.48C32.03 54.5 35.41 57.77 39.58 57.77C43.75 57.77 47.12 54.5 47.12 50.48C47.12 49.63 46.97 48.81 46.69 48.05C48.41 48 50.13 47.55 51.72 46.66C55.17 44.73 57.1 41.24 57.1 37.66C57.1 36.98 56.73 36.35 56.12 36.02C53.59 34.61 50.52 34.23 47.64 35.06C47.75 34.39 47.8 33.7 47.8 33C47.8 27.82 44.89 23.3 40.56 20.89ZM35.29 33C35.29 29.64 36.97 26.65 39.58 24.8C42.19 26.65 43.87 29.64 43.87 33C43.87 36.36 42.19 39.35 39.58 41.21C36.97 39.35 35.29 36.36 35.29 33ZM47.33 39.3C49.14 38.29 51.24 38.17 53.07 38.81C52.73 40.67 51.57 42.36 49.76 43.37C47.94 44.38 45.85 44.5 44.02 43.86C44.36 42.01 45.51 40.32 47.33 39.3ZM25.76 38.81C27.59 38.17 29.68 38.29 31.5 39.3C33.31 40.32 34.46 42.01 34.81 43.86C32.97 44.5 30.88 44.38 29.06 43.37C27.25 42.36 26.1 40.67 25.76 38.81ZM35.96 50.48C35.96 48.55 37.58 46.99 39.58 46.99C41.58 46.99 43.19 48.55 43.19 50.48C43.19 52.41 41.58 53.97 39.58 53.97C37.58 53.97 35.96 52.41 35.96 50.48Z" fill="#81818B" fill-opacity="1.000000" fill-rule="evenodd"/>
	</g>
</svg>
