<svg width="209.999939" height="78.750000" viewBox="0 0 210 78.75" fill="none" xmlns="http://www.w3.org/2000/svg" xmlns:xlink="http://www.w3.org/1999/xlink">
	<desc>
			Created with Pixso.
	</desc>
	<defs>
		<clipPath id="clip1_142">
			<rect id="62fbcc73ef501c1bcc12926a_Greenish%20Logo.svg" width="209.999939" height="78.749977" fill="white" fill-opacity="0"/>
		</clipPath>
	</defs>
	<g clip-path="url(#clip1_142)">
		<path id="Vector" d="M75.7 51.56C73.34 51.56 71.26 51.09 69.45 50.14C67.64 49.17 66.24 47.8 65.25 46.03C64.26 44.26 63.77 42.18 63.77 39.78C63.77 37.39 64.26 35.31 65.25 33.54C66.24 31.75 67.64 30.38 69.45 29.43C71.26 28.46 73.34 27.97 75.7 27.97C77.3 27.97 78.71 28.15 79.93 28.49C81.17 28.82 82.31 29.33 83.34 30.05L83.34 34.74C82.41 33.96 81.35 33.4 80.15 33.05C78.97 32.69 77.63 32.5 76.11 32.5C74.7 32.5 73.43 32.81 72.29 33.41C71.18 33.99 70.29 34.83 69.64 35.93C68.99 37.03 68.66 38.32 68.66 39.78C68.66 41.27 68.96 42.58 69.55 43.7C70.16 44.8 71.01 45.65 72.1 46.25C73.2 46.86 74.46 47.16 75.89 47.16C77.2 47.16 78.33 46.92 79.3 46.45L79.3 42.08L75.73 42.08L75.73 38.46L83.94 38.46L83.94 49.36C81.86 50.83 79.11 51.56 75.7 51.56Z" fill="#81818B" fill-opacity="1.000000" fill-rule="nonzero"/>
		<path id="Vector" d="M85.05 35.55L89.66 35.55L89.66 37.78C90.27 37.02 91.12 36.45 92.21 36.06C93.31 35.65 94.55 35.45 95.94 35.45L95.94 39.17C94.49 39.17 93.2 39.4 92.09 39.85C90.99 40.3 90.24 40.99 89.81 41.92L89.81 51.08L85.05 51.08L85.05 35.55Z" fill="#81818B" fill-opacity="1.000000" fill-rule="nonzero"/>
		<path id="Vector" d="M105.1 51.56C102.19 51.56 99.91 50.85 98.25 49.43C96.59 47.98 95.75 45.96 95.75 43.38C95.75 40.81 96.49 38.78 97.96 37.29C99.46 35.8 101.58 35.06 104.34 35.06C106.15 35.06 107.69 35.41 108.95 36.1C110.21 36.79 111.17 37.75 111.82 38.98C112.47 40.18 112.8 41.55 112.8 43.08L112.8 45.06L100.3 45.06C100.64 47.04 102.45 48.03 105.73 48.03C106.7 48.03 107.7 47.95 108.73 47.78C109.76 47.6 110.65 47.37 111.41 47.06L111.41 50.49C110.67 50.82 109.73 51.08 108.57 51.27C107.41 51.46 106.26 51.56 105.1 51.56ZM108.29 41.89C108.22 40.85 107.84 40.05 107.15 39.49C106.46 38.91 105.5 38.62 104.28 38.62C103.08 38.62 102.13 38.91 101.44 39.49C100.74 40.08 100.36 40.87 100.3 41.89L108.29 41.89Z" fill="#81818B" fill-opacity="1.000000" fill-rule="nonzero"/>
		<path id="Vector" d="M122.57 51.56C119.67 51.56 117.38 50.85 115.72 49.43C114.06 47.98 113.23 45.96 113.23 43.38C113.23 40.81 113.96 38.78 115.44 37.29C116.93 35.8 119.06 35.06 121.81 35.06C123.62 35.06 125.16 35.41 126.42 36.1C127.68 36.79 128.64 37.75 129.29 38.98C129.95 40.18 130.27 41.55 130.27 43.08L130.27 45.06L117.77 45.06C118.11 47.04 119.92 48.03 123.2 48.03C124.17 48.03 125.17 47.95 126.2 47.78C127.23 47.6 128.13 47.37 128.88 47.06L128.88 50.49C128.15 50.82 127.2 51.08 126.04 51.27C124.88 51.46 123.73 51.56 122.57 51.56ZM125.76 41.89C125.69 40.85 125.32 40.05 124.62 39.49C123.93 38.91 122.97 38.62 121.75 38.62C120.55 38.62 119.6 38.91 118.91 39.49C118.21 40.08 117.84 40.87 117.77 41.89L125.76 41.89Z" fill="#81818B" fill-opacity="1.000000" fill-rule="nonzero"/>
		<path id="Vector" d="M131.33 35.55L135.94 35.55L135.94 37.45C136.63 36.66 137.45 36.06 138.4 35.67C139.37 35.27 140.38 35.06 141.43 35.06C143.49 35.06 145.03 35.63 146.04 36.77C147.07 37.9 147.59 39.42 147.59 41.34L147.59 51.08L142.82 51.08L142.82 41.89C142.82 39.88 141.91 38.88 140.1 38.88C139.31 38.88 138.56 39.08 137.86 39.49C137.17 39.88 136.58 40.46 136.1 41.24L136.1 51.08L131.33 51.08L131.33 35.55Z" fill="#81818B" fill-opacity="1.000000" fill-rule="nonzero"/>
		<path id="Vector" d="M151.79 33.15C151.05 33.15 150.43 32.9 149.93 32.41C149.42 31.91 149.17 31.29 149.17 30.53C149.17 29.8 149.42 29.18 149.93 28.69C150.43 28.17 151.05 27.91 151.79 27.91C152.53 27.91 153.15 28.17 153.65 28.69C154.16 29.18 154.41 29.8 154.41 30.53C154.41 31.29 154.16 31.91 153.65 32.41C153.15 32.9 152.53 33.15 151.79 33.15ZM149.39 35.55L154.19 35.55L154.19 51.08L149.39 51.08L149.39 35.55Z" fill="#81818B" fill-opacity="1.000000" fill-rule="nonzero"/>
		<path id="Vector" d="M162.32 51.56C161.18 51.56 159.96 51.43 158.66 51.17C157.37 50.94 156.36 50.59 155.63 50.14L155.63 46.32C156.47 46.84 157.48 47.26 158.66 47.58C159.84 47.9 160.93 48.07 161.94 48.07C162.8 48.07 163.43 47.99 163.83 47.84C164.23 47.69 164.43 47.41 164.43 47C164.43 46.68 164.32 46.42 164.09 46.22C163.86 46.01 163.5 45.82 163.01 45.67C162.55 45.5 161.77 45.25 160.68 44.93C159.39 44.54 158.38 44.15 157.65 43.76C156.93 43.35 156.39 42.85 156.01 42.24C155.65 41.64 155.47 40.86 155.47 39.91C155.47 38.3 156.09 37.09 157.33 36.29C158.59 35.47 160.3 35.06 162.45 35.06C163.5 35.06 164.58 35.18 165.7 35.42C166.83 35.63 167.71 35.92 168.32 36.29L168.32 40.01C167.71 39.6 166.91 39.27 165.92 39.01C164.95 38.75 164 38.62 163.08 38.62C162.21 38.62 161.54 38.71 161.06 38.88C160.59 39.05 160.36 39.37 160.36 39.85C160.36 40.26 160.58 40.57 161.03 40.79C161.49 41 162.34 41.27 163.58 41.6L164.21 41.76C165.54 42.12 166.57 42.53 167.31 42.99C168.04 43.42 168.56 43.95 168.85 44.57C169.17 45.18 169.33 45.94 169.33 46.87C169.33 48.29 168.73 49.44 167.53 50.3C166.33 51.14 164.59 51.56 162.32 51.56Z" fill="#81818B" fill-opacity="1.000000" fill-rule="nonzero"/>
		<path id="Vector" d="M170.43 27.17L175.19 27.17L175.19 37.33C175.91 36.57 176.72 36.01 177.62 35.64C178.53 35.25 179.5 35.06 180.53 35.06C182.59 35.06 184.13 35.63 185.14 36.77C186.17 37.9 186.68 39.42 186.68 41.34L186.68 51.08L181.92 51.08L181.92 41.89C181.92 39.88 181.01 38.88 179.2 38.88C178.4 38.88 177.66 39.08 176.96 39.49C176.27 39.88 175.68 40.46 175.19 41.24L175.19 51.08L170.43 51.08L170.43 27.17Z" fill="#81818B" fill-opacity="1.000000" fill-rule="nonzero"/>
		<path id="Vector" d="M47.49 31.74C47.49 35.85 44.24 39.18 40.23 39.18C36.22 39.18 32.97 35.85 32.97 31.74C32.97 27.63 36.22 24.3 40.23 24.3C44.24 24.3 47.49 27.63 47.49 31.74ZM23.35 38.64C31.25 38.1 38.15 44.17 38.79 52.29C38.86 53.13 38.85 53.97 38.79 54.78C30.88 55.33 23.98 49.26 23.34 41.13C23.27 40.29 23.28 39.46 23.35 38.64ZM43.9 54.5C51.83 53.84 57.75 46.77 57.22 38.66C56.42 38.59 55.61 38.59 54.79 38.66C46.87 39.32 40.94 46.38 41.48 54.49C42.27 54.56 43.08 54.56 43.9 54.5Z" fill="#81818B" fill-opacity="1.000000" fill-rule="evenodd"/>
	</g>
</svg>
