<svg width="210.000000" height="78.750000" viewBox="0 0 210 78.75" fill="none" xmlns="http://www.w3.org/2000/svg" xmlns:xlink="http://www.w3.org/1999/xlink">
	<desc>
			Created with Pixso.
	</desc>
	<defs>
		<clipPath id="clip1_154">
			<rect id="62fbcc4358c3427af911102e_Waveless%20Logo.svg" width="210.000000" height="78.750000" fill="white" fill-opacity="0"/>
		</clipPath>
	</defs>
	<g clip-path="url(#clip1_154)">
		<path id="Vector" d="M29.41 30.97C32.15 27.46 36.54 25.19 41.48 25.19C46.46 25.19 50.87 27.49 53.61 31.03C53.49 31.14 53.38 31.26 53.29 31.38C52.79 31.99 52.41 32.79 52.11 33.6C51.5 35.22 51.04 37.34 50.61 39.32L50.57 39.5C50.14 41.48 49.74 43.33 49.26 44.69C49.04 45.31 48.84 45.74 48.65 46.02C48.46 45.74 48.25 45.3 48.02 44.68C47.5 43.27 47.07 41.36 46.61 39.31L46.6 39.25L46.6 39.25C46.16 37.28 45.69 35.2 45.1 33.61C44.81 32.8 44.45 32.02 43.98 31.41C43.52 30.81 42.75 30.13 41.62 30.13C40.5 30.13 39.73 30.8 39.26 31.39C38.78 32 38.41 32.78 38.1 33.58C37.48 35.2 36.97 37.31 36.5 39.3L36.45 39.5C35.98 41.47 35.54 43.31 35.05 44.68C34.86 45.21 34.68 45.6 34.52 45.89C34.36 45.6 34.19 45.21 34 44.69C33.53 43.35 33.11 41.56 32.66 39.64L32.58 39.3C32.12 37.31 31.61 35.2 30.98 33.58C30.67 32.78 30.29 31.99 29.79 31.38C29.68 31.24 29.55 31.1 29.41 30.97ZM27.75 33.65C27.88 33.9 28.02 34.2 28.16 34.57C28.71 35.97 29.17 37.88 29.65 39.92L29.74 40.32C30.17 42.18 30.62 44.11 31.15 45.6C31.43 46.4 31.77 47.18 32.21 47.78C32.63 48.35 33.37 49.09 34.51 49.09C35.65 49.09 36.4 48.36 36.82 47.79C37.26 47.18 37.6 46.41 37.89 45.61C38.44 44.09 38.91 42.11 39.36 40.21L39.36 40.21L39.43 39.93C39.92 37.89 40.38 35.97 40.92 34.57C41.17 33.91 41.41 33.46 41.61 33.18C41.81 33.46 42.03 33.9 42.26 34.54C42.78 35.95 43.21 37.87 43.67 39.91L43.69 39.98C44.13 41.94 44.6 44.02 45.18 45.62C45.47 46.42 45.83 47.2 46.3 47.81C46.77 48.41 47.54 49.09 48.66 49.09C49.79 49.09 50.56 48.41 51.02 47.8C51.48 47.19 51.83 46.4 52.11 45.6C52.65 44.06 53.08 42.07 53.49 40.17L53.49 40.17L53.55 39.9C53.99 37.86 54.42 35.95 54.94 34.55C55.05 34.25 55.17 33.99 55.27 33.77C56.08 35.52 56.52 37.45 56.52 39.48C56.52 47.37 49.79 53.77 41.48 53.77C33.18 53.77 26.45 47.37 26.45 39.48C26.45 37.41 26.91 35.43 27.75 33.65ZM41.48 22.34C31.52 22.34 23.44 30.01 23.44 39.48C23.44 48.95 31.52 56.62 41.48 56.62C51.45 56.62 59.53 48.95 59.53 39.48C59.53 30.01 51.45 22.34 41.48 22.34ZM41.83 32.94C41.83 32.94 41.83 32.94 41.82 32.95C41.83 32.94 41.83 32.94 41.83 32.94ZM41.41 32.94C41.41 32.94 41.4 32.93 41.4 32.93C41.4 32.93 41.41 32.94 41.41 32.94ZM48.43 46.29C48.43 46.29 48.44 46.29 48.44 46.28C48.44 46.29 48.43 46.29 48.43 46.29ZM48.87 46.28C48.88 46.28 48.88 46.29 48.88 46.29C48.88 46.29 48.88 46.29 48.87 46.28ZM34.21 46.32C34.21 46.32 34.21 46.31 34.22 46.31C34.21 46.31 34.21 46.32 34.21 46.32ZM34.81 46.31C34.82 46.32 34.83 46.32 34.83 46.32C34.83 46.32 34.82 46.32 34.81 46.31Z" fill="#81818B" fill-opacity="1.000000" fill-rule="evenodd"/>
		<path id="Vector" d="M69.49 49.63L65.12 35.41L68.95 35.41L71.54 45.64L74.56 35.41L78.85 35.41L81.86 45.64L84.49 35.41L88.32 35.41L83.91 49.63L79.9 49.63L76.7 38.99L73.5 49.63L69.49 49.63Z" fill="#81818B" fill-opacity="1.000000" fill-rule="nonzero"/>
		<path id="Vector" d="M93.94 49.97C92.66 49.97 91.6 49.78 90.78 49.4C89.95 49 89.34 48.47 88.93 47.82C88.53 47.17 88.33 46.46 88.33 45.67C88.33 44.35 88.87 43.28 89.96 42.46C91.05 41.64 92.68 41.23 94.85 41.23L98.65 41.23L98.65 40.89C98.65 39.91 98.36 39.19 97.78 38.74C97.19 38.28 96.47 38.05 95.6 38.05C94.82 38.05 94.13 38.23 93.55 38.59C92.97 38.94 92.61 39.45 92.47 40.14L88.69 40.14C88.79 39.11 89.16 38.21 89.78 37.45C90.42 36.68 91.25 36.1 92.25 35.7C93.26 35.28 94.39 35.07 95.63 35.07C97.77 35.07 99.45 35.57 100.67 36.59C101.9 37.6 102.51 39.03 102.51 40.89L102.51 49.63L99.22 49.63L98.86 47.34C98.42 48.1 97.8 48.73 96.99 49.23C96.21 49.73 95.19 49.97 93.94 49.97ZM94.82 47.11C95.93 47.11 96.78 46.76 97.38 46.07C98.01 45.39 98.4 44.54 98.56 43.52L95.27 43.52C94.25 43.52 93.51 43.7 93.07 44.07C92.63 44.41 92.41 44.84 92.41 45.36C92.41 45.91 92.63 46.34 93.07 46.65C93.51 46.95 94.09 47.11 94.82 47.11Z" fill="#81818B" fill-opacity="1.000000" fill-rule="nonzero"/>
		<path id="Vector" d="M108.59 49.63L103.1 35.41L107.15 35.41L110.95 46.16L114.75 35.41L118.79 35.41L113.27 49.63L108.59 49.63Z" fill="#81818B" fill-opacity="1.000000" fill-rule="nonzero"/>
		<path id="Vector" d="M126.56 49.97C125.05 49.97 123.71 49.67 122.54 49.06C121.38 48.44 120.46 47.58 119.8 46.48C119.13 45.37 118.8 44.09 118.8 42.63C118.8 41.16 119.13 39.85 119.77 38.71C120.43 37.56 121.34 36.67 122.48 36.04C123.65 35.39 125.02 35.07 126.59 35.07C128.06 35.07 129.35 35.37 130.48 35.98C131.61 36.59 132.48 37.44 133.11 38.51C133.75 39.56 134.07 40.73 134.07 42.03C134.07 42.24 134.06 42.46 134.04 42.69C134.04 42.92 134.03 43.16 134.01 43.41L122.64 43.41C122.72 44.52 123.12 45.39 123.84 46.02C124.59 46.65 125.48 46.96 126.53 46.96C127.31 46.96 127.97 46.8 128.49 46.48C129.03 46.13 129.43 45.69 129.7 45.16L133.62 45.16C133.34 46.06 132.86 46.88 132.2 47.62C131.56 48.35 130.75 48.92 129.79 49.34C128.84 49.76 127.76 49.97 126.56 49.97ZM126.59 38.05C125.64 38.05 124.81 38.31 124.08 38.82C123.36 39.32 122.9 40.08 122.7 41.11L130.15 41.11C130.09 40.18 129.73 39.43 129.06 38.88C128.4 38.32 127.57 38.05 126.59 38.05Z" fill="#81818B" fill-opacity="1.000000" fill-rule="nonzero"/>
		<path id="Vector" d="M136.11 49.63L136.11 28.99L139.98 28.99L139.98 49.63L136.11 49.63Z" fill="#81818B" fill-opacity="1.000000" fill-rule="nonzero"/>
		<path id="Vector" d="M149.99 49.97C148.48 49.97 147.14 49.67 145.97 49.06C144.81 48.44 143.89 47.58 143.23 46.48C142.56 45.37 142.23 44.09 142.23 42.63C142.23 41.16 142.55 39.85 143.2 38.71C143.86 37.56 144.77 36.67 145.91 36.04C147.08 35.39 148.45 35.07 150.02 35.07C151.49 35.07 152.78 35.37 153.91 35.98C155.04 36.59 155.91 37.44 156.53 38.51C157.18 39.56 157.5 40.73 157.5 42.03C157.5 42.24 157.49 42.46 157.47 42.69C157.47 42.92 157.46 43.16 157.44 43.41L146.06 43.41C146.14 44.52 146.55 45.39 147.27 46.02C148.02 46.65 148.91 46.96 149.96 46.96C150.74 46.96 151.39 46.8 151.92 46.48C152.46 46.13 152.86 45.69 153.13 45.16L157.05 45.16C156.77 46.06 156.29 46.88 155.63 47.62C154.99 48.35 154.18 48.92 153.22 49.34C152.27 49.76 151.19 49.97 149.99 49.97ZM150.02 38.05C149.07 38.05 148.24 38.31 147.51 38.82C146.79 39.32 146.33 40.08 146.12 41.11L153.58 41.11C153.52 40.18 153.16 39.43 152.49 38.88C151.83 38.32 151 38.05 150.02 38.05Z" fill="#81818B" fill-opacity="1.000000" fill-rule="nonzero"/>
		<path id="Vector" d="M165.73 49.97C164.4 49.97 163.23 49.77 162.23 49.37C161.22 48.95 160.42 48.38 159.81 47.65C159.21 46.93 158.85 46.08 158.73 45.13L162.62 45.13C162.74 45.68 163.06 46.16 163.59 46.56C164.13 46.94 164.82 47.14 165.67 47.14C166.51 47.14 167.13 46.97 167.51 46.65C167.91 46.32 168.11 45.95 168.11 45.53C168.11 44.92 167.83 44.51 167.27 44.3C166.7 44.07 165.92 43.85 164.91 43.64C164.27 43.5 163.62 43.34 162.95 43.15C162.29 42.96 161.67 42.72 161.11 42.43C160.57 42.13 160.13 41.75 159.78 41.29C159.44 40.81 159.27 40.23 159.27 39.54C159.27 38.28 159.79 37.22 160.84 36.36C161.91 35.5 163.39 35.07 165.31 35.07C167.08 35.07 168.48 35.46 169.53 36.24C170.6 37.02 171.23 38.1 171.43 39.48L167.78 39.48C167.56 38.43 166.72 37.9 165.28 37.9C164.55 37.9 163.99 38.04 163.59 38.31C163.2 38.57 163.01 38.91 163.01 39.31C163.01 39.73 163.3 40.06 163.89 40.31C164.47 40.56 165.25 40.79 166.21 41C167.26 41.23 168.21 41.49 169.08 41.77C169.96 42.04 170.67 42.45 171.19 43.01C171.71 43.54 171.97 44.32 171.97 45.33C172 46.21 171.75 47 171.25 47.71C170.75 48.42 170.02 48.97 169.08 49.37C168.13 49.77 167.02 49.97 165.73 49.97Z" fill="#81818B" fill-opacity="1.000000" fill-rule="nonzero"/>
		<path id="Vector" d="M180.38 49.97C179.05 49.97 177.88 49.77 176.87 49.37C175.87 48.95 175.06 48.38 174.46 47.65C173.86 46.93 173.49 46.08 173.37 45.13L177.27 45.13C177.39 45.68 177.71 46.16 178.23 46.56C178.78 46.94 179.47 47.14 180.31 47.14C181.16 47.14 181.77 46.97 182.16 46.65C182.56 46.32 182.76 45.95 182.76 45.53C182.76 44.92 182.48 44.51 181.91 44.3C181.35 44.07 180.57 43.85 179.56 43.64C178.92 43.5 178.26 43.34 177.6 43.15C176.94 42.96 176.32 42.72 175.76 42.43C175.22 42.13 174.77 41.75 174.43 41.29C174.09 40.81 173.92 40.23 173.92 39.54C173.92 38.28 174.44 37.22 175.49 36.36C176.55 35.5 178.04 35.07 179.95 35.07C181.72 35.07 183.13 35.46 184.18 36.24C185.24 37.02 185.88 38.1 186.08 39.48L182.43 39.48C182.21 38.43 181.37 37.9 179.92 37.9C179.2 37.9 178.63 38.04 178.23 38.31C177.85 38.57 177.66 38.91 177.66 39.31C177.66 39.73 177.95 40.06 178.53 40.31C179.12 40.56 179.89 40.79 180.86 41C181.9 41.23 182.86 41.49 183.72 41.77C184.61 42.04 185.31 42.45 185.84 43.01C186.36 43.54 186.62 44.32 186.62 45.33C186.64 46.21 186.4 47 185.9 47.71C185.39 48.42 184.67 48.97 183.72 49.37C182.78 49.77 181.66 49.97 180.38 49.97Z" fill="#81818B" fill-opacity="1.000000" fill-rule="nonzero"/>
	</g>
</svg>
